/* XPM */
static char *_7c034a81a3c4b73a2185141463b10430J2jaPG2b3JonVtW[] = {
/* columns rows colors chars-per-pixel */
"40 40 98 2 ",
"   c #317637",
".  c #317837",
"X  c #347B3A",
"o  c #397E3F",
"O  c #FF5757",
"+  c #FA6666",
"@  c #35853D",
"#  c #39823F",
"$  c #378B3E",
"%  c #3D8243",
"&  c #3C8C43",
"*  c #3A9442",
"=  c #3B9C44",
"-  c #3DA346",
";  c #3FAA49",
":  c #408646",
">  c #418947",
",  c #428748",
"<  c #458B4B",
"1  c #498F4F",
"2  c #409547",
"3  c #429449",
"4  c #439B4B",
"5  c #489C4F",
"6  c #4C9252",
"7  c #4A9C51",
"8  c #44A34D",
"9  c #43AD4C",
"0  c #44B44E",
"q  c #44BD4F",
"w  c #48A350",
"e  c #47AC50",
"r  c #4CA954",
"t  c #56A25D",
"y  c #55AE5D",
"u  c #46B150",
"i  c #4DB556",
"p  c #46BD51",
"a  c #4ABD55",
"s  c #4EBF59",
"d  c #51BF5B",
"f  c #5C9F62",
"g  c #639D68",
"h  c #709B74",
"j  c #5DAA64",
"k  c #5FB266",
"l  c #63BE6B",
"z  c #77A87B",
"x  c #79A97D",
"c  c #6AB071",
"v  c #56C060",
"b  c #5DC166",
"n  c #60C269",
"m  c #6BC473",
"M  c #73C47B",
"N  c #99BE9D",
"B  c #ADBFAF",
"V  c #F18484",
"C  c #ED9595",
"Z  c #EA9F9F",
"A  c #E7A7A7",
"S  c #E9A3A3",
"D  c #E1BEBE",
"F  c #84C589",
"G  c #8BCA91",
"H  c #94C598",
"J  c #9BC79F",
"K  c #95CB9A",
"L  c #9DCDA1",
"P  c #A2CEA6",
"I  c #A6CFAA",
"U  c #ABD0AE",
"Y  c #ACD0AF",
"T  c #B1C9B3",
"R  c #B7C8B8",
"E  c #BDCABE",
"W  c #BCCDBD",
"Q  c #B7D2BA",
"!  c #BDD1BF",
"~  c #BFD4C1",
"^  c #C0CEC1",
"/  c #C4CEC5",
"(  c #DFC1C1",
")  c #DEC5C5",
"_  c #DDC9C9",
"`  c #DCCCCC",
"'  c #C3D5C5",
"]  c #C6D4C7",
"[  c #C9D0CA",
"{  c #C8D6CA",
"}  c #CBD4CC",
"|  c #CDD6CE",
" . c #D1D7D2",
".. c #DBD2D2",
"X. c #D9D7D7",
"o. c #D3D8D4",
"O. c #D4D8D5",
"+. c gray85",
/* pixels */
"6 6 6 6 6 6 6 6 6 6 6 7 6 6 6 6 6 6 6 6 6 6 6 6 6 6 6 6 6 6 6 6 6 6 6 6 6 6 6 6 ",
"6 6 6 6 6 6 6 6 6 6 6 e 6 6 6 6 6 6 6 6 6 6 6 6 6 6 6 6 6 6 6 6 6 6 6 6 6 6 6 6 ",
"6 6 6 6 6 6 6 6 6 6 6 0 6 6 6 6 6 6 6 6 6 7 6 6 6 6 6 6 6 6 6 6 6 6 6 6 6 6 6 6 ",
"6 6 6 7 6 6 6 6 6 6 7 0 6 6 6 6 6 6 6 6 6 w 6 6 6 6 6 6 6 6 6 6 6 6 6 6 6 6 6 6 ",
"6 6 6 e 6 6 6 1 6 6 w u 6 6 6 6 6 w 6 6 6 0 6 6 6 6 6 6 1 6 6 6 6 6 6 6 6 6 6 6 ",
"6 w w e 6 6 1 , 6 6 0 e 6 6 6 6 7 w 6 6 6 q 6 6 6 6 6 < : 6 6 6 6 6 w 6 , 6 6 6 ",
"6 e 0 e 6 6 : < 6 6 q e 6 6 6 6 e 7 6 , 7 q 6 6 6 6 6 % % 6 7 6 6 6 e 6 % 6 6 6 ",
"6 i P k 6 6 X 6 6 6 q e 6 7 6 6 q 6 6 o w q 7 < 6 6 6 . % 6 w 7 6 w e 6 X w 6 6 ",
"6 K +.^ 6 < . 6 6 7 q w w 7 6 w q 6 < X e q 7 % 6 6 <   % 6 e e 6 0 w < X 9 6 6 ",
"7 ~ +.+.g 2 # 6 w w q w 0 w 6 0 0 6 % o q q 3 o 6 , 5 . % 6 q 0 t s 7 : X q 6 6 ",
"} O.+.+.R ! / x e e q u 0 e w q 0 6 o * q q & & < % 3 * > r i a ] P 6 % $ q 6 6 ",
"+...S ) +.+.+.c e 0 q q e 0 w q e 6   - q q @ = % % * 0 8 F  .I +.! 6 o = q 7 w ",
"+.A O V +.+.N e q q q q w q e q w < . 0 q q @ 8 @ & - 9 q M +.X.Z X.+.B = q w 0 ",
"+...C ( +.U u q w q q q w q q q w < $ q q q @ e $ * - = q y +.` + _ O.h = q 0 q ",
"+.+.+.+.+.' q q 7 q q q w q q q 7 : = q q q & 0 = ; ; * q J +.+.+.+.x   = q q q ",
"+.+.] +.+.+.b q 6 q q e w q q q w : ; q q q 3 0 - 0 ; = q F T P o.+.z   - q q q ",
"H n y E +. .b q 7 q q e e q q q e % 0 q q q 4 0 9 q ; ; q 0 = q m P j   = q q q ",
"e q w % e p q 0 7 q q e u q q q 0 > q q q q 5 0 q q 0 0 q q 0 q q q 9   = q q q ",
"0 q 7 & 0 q q 0 7 q q 0 0 q q q q 5 q q q q 4 0 q q q q q q q q q q 0   - q q q ",
"q q w 0 q q q 0 w q q 0 0 q q q q 0 q q d q 2 0 q q q q q q q q q q q X 0 q q q ",
"q q 0 0 q q q q 9 q q q q q q q q q q L | a * 0 q q q q q q q q q q q = q q q q ",
"q q q = q q q q q q q q q q q q { L M +.+.m & 0 q q q 9 q q q q q q q 0 q q q q ",
"q q 0 @ q q q q q q q q q q q q O.+.+.+.+.G f 0 q q q * q q q q q q q q q q q q ",
"q q 4 $ q q q q q q q q q q q q Q +.X.S _ +.+.U q q q X 0 q q q q q q q q q q q ",
"q q * $ q q q q q q q q q q q q Y +.( O C +.[ l q q 0   0 q q q q q q q q q q 0 ",
"q q * $ q q q q q q q q q q q m +.+.+.D ..! 3 0 q q - X 0 q q q q q q q q q q e ",
"q q * $ q q q q q q q q q q q M +.+.] +.+.~ * 0 q q * % e q q q q q q q q q q e ",
"q q * $ q q q q q q q q q q q p v s 0 W +.' * 0 q q $ , e q q q q q q q q q q w ",
"q q * = q q q q q q u q q q q q q q q 0 M m = 0 q q $ 1 u q q q q q q q 0 q q w ",
"q q * - q q q q q q e q q q q q q q q q q q 8 0 q q * 6 0 q q q q q q q 8 0 q w ",
"q q * 0 q q q q q q w q q q q q q q q q q q = 0 q q 4 6 q q q q q q q q 3 0 q 7 ",
"q q = 0 q q q q q q 7 q q q q q q q q q q q = 0 q q 8 7 q q q q q q q q & 0 q 4 ",
"q q - q q q q q q q w q q q q q q q 0 q q q - 0 q q w w q q q q q q q 0 % q q * ",
"q q ; q q q q q q q e q q q q q q q = q q q ; q q q e e q q q q q q q q % q q = ",
"q q 0 q q q q q q q q q q q q q q q & 0 q q q q q q e 0 q q q q q q q q & q q = ",
"q q q q q q q q q q q q q q q q q q * = q q q q q q e q q q q q q q q q 4 q q - ",
"q q q q q q q q q q q q q q q q q q 2 * q q q q q q q q q q q q q q q q 9 q q 9 ",
"q q q q q q q q q q q q q q q q q q 2 * q q q q q q q q q q q q q q q q 0 q q q ",
"q q q q q q q q q q q q q q q q q q & $ q q q q q q q q q q q q q q q q q q q q ",
"q q q q q q q q q q e q q q q q q q & $ q q q q q q q q q q q q q q q q q q q q "
};
