/* XPM */
static char *_b8905a192944cf5c079eda32c5a6104YfFuogF3WVaYcDhQ[] = {
/* columns rows colors chars-per-pixel */
"40 40 161 2 ",
"   c #6F6424",
".  c #6B672A",
"X  c #6B6A2B",
"o  c #706224",
"O  c #756D28",
"+  c #7F7528",
"@  c #647133",
"#  c #5A7F41",
"$  c #874202",
"%  c #8B4502",
"&  c #8E4801",
"*  c #824B0B",
"=  c #9B4C02",
"-  c #875C17",
";  c #A15103",
":  c #A95703",
">  c #AC5802",
",  c #A05F0D",
"<  c #956617",
"1  c #9A6213",
"2  c #936718",
"3  c #A76302",
"4  c #AC6603",
"5  c #BD6D04",
"6  c #B87604",
"7  c #876D23",
"8  c #837126",
"9  c #CD6D00",
"0  c #CE7001",
"q  c #C37804",
"w  c #C07509",
"e  c #D47501",
"r  c #D77901",
"t  c #5F803F",
"y  c #7E9F3F",
"u  c #4F8E4F",
"i  c #5C8747",
"p  c #558648",
"a  c #538C4D",
"s  c #598948",
"d  c #50904F",
"f  c #5C964C",
"g  c #4C9252",
"h  c #559653",
"j  c #579853",
"k  c #5C9A55",
"l  c #608542",
"z  c #6F9B46",
"x  c #759D44",
"c  c #639D55",
"v  c #75A656",
"b  c #7DAA56",
"n  c #949129",
"m  c #9EA731",
"M  c #ADAB27",
"N  c #A8A629",
"B  c #AAAB28",
"V  c #BEB333",
"C  c #B0B13A",
"Z  c #C58002",
"A  c #CC8404",
"S  c #D18703",
"D  c #DC8302",
"F  c #D58C04",
"G  c #DC8802",
"H  c #D99304",
"J  c #DE9903",
"K  c #D68713",
"L  c #D98E19",
"P  c #DA911A",
"I  c #E08402",
"U  c #E48A01",
"Y  c #E88E01",
"T  c #E29401",
"R  c #EF9700",
"E  c #E39E04",
"W  c #EF9901",
"Q  c #EF9F08",
"!  c #F09700",
"~  c #F09900",
"^  c #E5A602",
"/  c #EDA302",
"(  c #EDAD03",
")  c #F3A301",
"_  c #F6AE01",
"`  c #F0A30E",
"'  c #EDB003",
"]  c #ECB308",
"[  c #EFBD0A",
"{  c #F5B503",
"}  c #F9B603",
"|  c #F5BE06",
" . c #FCBD01",
".. c #F2BE08",
"X. c #F8BD12",
"o. c #F1B11D",
"O. c #F5B81C",
"+. c #D49525",
"@. c #DE9C22",
"#. c #DFA025",
"$. c #C1B121",
"%. c #CAB932",
"&. c #E2A529",
"*. c #EDB72F",
"=. c #F4B521",
"-. c #F3BA26",
";. c #E8B334",
":. c #FEC100",
">. c #FDC801",
",. c #FBC30C",
"<. c #FAC41C",
"1. c #FCCD18",
"2. c #D0C13A",
"3. c #E3C223",
"4. c #FAC722",
"5. c #FAC72B",
"6. c #FDD123",
"7. c #FCD52C",
"8. c #FCD82F",
"9. c #F6C230",
"0. c #FBCE32",
"q. c #FACE3C",
"w. c #FBD53D",
"e. c #FBDA3C",
"r. c #85AE56",
"t. c #89AF57",
"y. c #8CB158",
"u. c #99B757",
"i. c #9AB857",
"p. c #ABB543",
"a. c #A8B14F",
"s. c #A4BC57",
"d. c #A9BF59",
"f. c #ACC157",
"g. c #ADC058",
"h. c #B5C457",
"j. c #B1C359",
"k. c #CCD05A",
"l. c #D6D55B",
"z. c #D8D65A",
"x. c #E2CC41",
"c. c #F1CB44",
"v. c #F9D645",
"b. c #FBDA47",
"n. c #F6D54D",
"m. c #F7D84F",
"M. c #EBDC57",
"N. c #FDD350",
"B. c #FDE34F",
"V. c #FCE253",
"C. c #F4E25A",
"Z. c #F6E45A",
"A. c #F9E55A",
"S. c #FEE759",
"D. c #FEE859",
"F. c #FBDB74",
"G. c #FCE69C",
"H. c #FCE7A1",
"J. c #FCE9AA",
"K. c #FEEDB6",
"L. c #FEEDB8",
/* pixels */
"g g g g g g g g g g g g g g g g g g g g g g g g g g g g g g g g g g g g g g g g ",
"g g g g g g g g g g g g g g g g g g g g g g g g g g g g g g g g g g g g g g g g ",
"g g g g g g g g g g g g g g g g g g g g g g g g g g g g g g g g g g g g g g g g ",
"g g g g g g g g g g g g g g g g g g g g g g g g g g g g g g g g g g g g g g g g ",
"g g g g g g g g g g g g g g g g c t.i.s.s.u.t.k g g g g g g g g g g g g g g g g ",
"g g g g g g g g g g g g g k g.l.s.p.C V %.2.M.S.z.d.j g g g g g g g g g g g g g ",
"g g g g g g g g g g g h j.Z.D.x.] } } } } } X.S.D.S.C.d.h g g g g g g g g g g g ",
"g g g g g g g g g g v M.S.S.S.S.w.4.<.<.4.0.V.D.D.D.D.S.3.z g g g g g g g g g g ",
"g g g g g g g g g t.A.S.D.D.S.S.n.;.&.@.@.&.;.m.S.D.S.B.:.| y g g g g g g g g g ",
"g g g g g g g g r.A.S.D.D.S.c.L 9 9 9 9 9 9 9 9 P c.S.8.:.:.| x g g g g g g g g ",
"g g g g g g g c C.S.D.S.V.#.9 9 9 9 9 9 9 9 9 9 9 9 &.,.:.:.:.[ f g g g g g g g ",
"g g g g g g g k.S.D.S.V.L 9 9 9 9 9 e e e e 9 9 9 9 9 G  .:.:.:.$.g g g g g g g ",
"g g g g g g b S.S.D.S.@.9 9 9 r U R R W W R R U r 9 9 9 T :.:.:. .z g g g g g g ",
"g g g g g g k.D.D.S.c.9 9 e Y R R ! Q b.b.Q ! ! R Y e 9 9 { :.:.:.$.g g g g g g ",
"g g g g g h Z.S.D.S.K 9 r R ! ! W W O.} } 9.W ! ! ! R e 9 D :.:.:...g g g g g g ",
"g g g g g y.S.S.D.m.9 e R W W ! R o.0.} } w.-.W R ! ) R e 0  .:.:.:.x g g g g g ",
"g g g g g f.S.D.D.;.e R R v.v.` Q V.S.w.b.S.e.) W  .>.W R 9 / :.:.:.m g g g g g ",
"g g g g g h.D.D.S.&.I R R v.S.V.b.S.S.S.S.8.>. .:.>.:.R R D T :.:.:.B g g g g g ",
"g g g g g h.D.D.S.&.R ! R q.D.S.S.S.S.B.1.>.>.>.>.>. .R ! R T :.:.:.M g g g g g ",
"g g g g g h.S.D.S.*.R ! W 9.D.S.D.V.7.>.>.>.>.>.>.>.{ R R R / :.:.:.N g g g g g ",
"g g g g g a.S.D.D.v.R ! W =.S.e.6.>.>.>.>.>.>.>.>.>._ R R R  .:.:.:.n g g g g g ",
"g g g g g + 1.6.7.7.W R W W >.>.>.>.>.>.>.>.>.>.>.>.~ W R ~ :.:.:. .O g g g g g ",
"g g g g g   ( :.:.:._ W ! W :.>.>.>.>.>.>.>.>.>.>.:.W R R _ :.:.:.^ . g g g g g ",
"g g g g g . 6 :.:.:. .~ R ! ~ _ _ _ _ _ _ _ _ _ _ ~ W ! ) :.:.:.:.6 @ g g g g g ",
"g g g g g # & { :.:.:. .! R ! ! ! ! ! ! ! ! ! ! ! ! ! ~  .:.:.:.' % p g g g g g ",
"g g g g g g * 4 :.:.:.:. .~ W ! ! ! ! ! ! ! ! ! ! R ~ 5.N.4.:.:.3 * g g g g g g ",
"g g g g g g o $ H :.:.:.:. .) W R R R R R ! R ! ! _ F.K.K.J.:.F % . g g g g g g ",
"g g g g g g p $ : E :.:.:.:.:. ._ ) W R R W ) _  .q.L.K.K.G.J > % a g g g g g g ",
"g g g g g g g . : > H  .:.:.:.:.:.:.:. . .:.:.:.:.0.K.K.H.+.> > X g g g g g g g ",
"g g g g g g g u 1 > > q { :.:.:.:.:.:.:.:.:.:.:.:.:.<.-.w > > < g g g g g g g g ",
"g g g g g g g g s , > : = A ( :.:.:.:.:.:.:.:.:.:.( A > > > 1 a g g g g g g g g ",
"g g g g g g g g g s 1 : = = ; 5 S J ( } } ( H Z 4 = > > > 1 a g g g g g g g g g ",
"g g g g g g g g g g a 7 = = ; > > > > > > > ; = = = > > 8 a g g g g g g g g g g ",
"g g g g g g g g g g g g t - ; > > > > > > > ; = = = 2 l g g g g g g g g g g g g ",
"g g g g g g g g g g g g g g i 8 < > : : > > ; - O s g g g g g g g g g g g g g g ",
"g g g g g g g g g g g g g g g g g d s l l s g g g g g g g g g g g g g g g g g g ",
"g g g g g g g g g g g g g g g g g g g g g g g g g g g g g g g g g g g g g g g g ",
"g g g g g g g g g g g g g g g g g g g g g g g g g g g g g g g g g g g g g g g g ",
"g g g g g g g g g g g g g g g g g g g g g g g g g g g g g g g g g g g g g g g g ",
"g g g g g g g g g g g g g g g g g g g g g g g g g g g g g g g g g g g g g g g g "
};
