/* XPM */
static char *d37ae3b1b6784fdcbde94ff948d9252f8UnKPMAnZP6D4qzk[] = {
/* columns rows colors chars-per-pixel */
"40 40 54 1 ",
"  c #4C9252",
". c #559652",
"X c #5A9752",
"o c #5F9952",
"O c #609A52",
"+ c #649B52",
"@ c #679D52",
"# c #689D52",
"$ c #6D9F53",
"% c #6FA153",
"& c #7FA753",
"* c #A9B04F",
"= c #ACB350",
"- c #B1B752",
"; c #B1B851",
": c #B8BB51",
"> c #BABD53",
", c #BDBD53",
"< c #BABF54",
"1 c #BDBF54",
"2 c #C2BF52",
"3 c #BBC055",
"4 c #BCC156",
"5 c #C0C053",
"6 c #C7C052",
"7 c #C0C255",
"8 c #C6C254",
"9 c #C2C456",
"0 c #C7C657",
"q c #CAC253",
"w c #CFC251",
"e c #CFC653",
"r c #C8C454",
"t c #CDC554",
"y c #CDC957",
"u c #D0C351",
"i c #D1C553",
"p c #D4C653",
"a c #D0C654",
"s c #D7C953",
"d c #D3C955",
"f c #D6C854",
"g c #D7CC56",
"h c #D8CA54",
"j c #D8CD57",
"k c #DECC54",
"l c #DFD057",
"z c #E4CF55",
"x c #E0D057",
"c c #E4D257",
"v c #E8D457",
"b c #E8D458",
"n c #F0D758",
"m c #F3D958",
/* pixels */
"                                        ",
"                                        ",
"                                        ",
"                                        ",
"     vxxxhwjmcxkiilxxxsukxxxkwfxxxn     ",
"     2      7#                    :     ",
"     y      >+                    0     ",
"     y      7@                    0     ",
"     r      >@                    1     ",
"     8      9#                    7     ",
"     y      9#                    0     ",
"     k008,0,vy0,07,00750,000,07700z     ",
"     XOOi#OOo0&oOOoOOoOOooOooOOe#Oo     ",
"        j.   *#                d.       ",
"        e.   3$                t.       ",
"        d.   4%                t.       ",
"        j.   4%                d.       ",
"        j.   4%                d.       ",
"        e.   4%                6.       ",
"        g.   -$                d.       ",
"        g.   ;$                d.       ",
"        e.   4%                6.       ",
"        j.   4%                d.       ",
"        j.   4%                d.       ",
"        d.   4%                t.       ",
"        a.   3$                t.       ",
"        j.   *#                d.       ",
"        w.   4%                q.       ",
"        g.   4%                d.       ",
"        j.   4%                d.       ",
"        j.   4%                d.       ",
"        q.   4%                6.       ",
"        j.   =#                d.       ",
"        d.   <$                y.       ",
"        e.   4%                q.       ",
"        khwjxmcliplxxxfukxxxkwfb.       ",
"                                        ",
"                                        ",
"                                        ",
"                                        "
};
