/* XPM */
static char *d41bf346afb64847b009e59460e13370wAq5I2r95ADh565a[] = {
/* columns rows colors chars-per-pixel */
"40 40 59 1 ",
"  c #749F3F",
". c #7DA23B",
"X c #7BA13C",
"o c #52934F",
"O c #57954C",
"+ c #5B974B",
"@ c #5F9749",
"# c #58964C",
"$ c #5F9849",
"% c #4C9252",
"& c #509350",
"* c #639947",
"= c #669A46",
"- c #6C9C43",
"; c #6A9B44",
": c #619848",
"> c #729E40",
", c #BAB51F",
"< c #BDB61E",
"1 c #9BAB2D",
"2 c #9CAB2D",
"3 c #86A437",
"4 c #8DA733",
"5 c #8AA635",
"6 c #8CA634",
"7 c #8FA833",
"8 c #80A23A",
"9 c #90A732",
"0 c #91A832",
"q c #94A930",
"w c #A8AF27",
"e c #A3AE29",
"r c #A5AF29",
"t c #A8AF28",
"y c #ACB125",
"u c #B1B223",
"i c #B5B421",
"p c #B0B224",
"a c #B8B420",
"s c #C7B919",
"d c #C9BA18",
"f c #D5BE12",
"g c #D0BC15",
"h c #D8BF11",
"j c #DDC10F",
"k c #DBC010",
"l c #EEC507",
"z c #E7C40A",
"x c #E0C10E",
"c c #E4C30C",
"v c #EAC509",
"b c #EDC508",
"n c #F2C705",
"m c #F7C803",
"M c #F3C805",
"N c #F4C805",
"B c #FBCA01",
"V c #FECB00",
"C c #FFCC00",
/* pixels */
"%%%%%%%%%%%%%%%%%%%%%%%%%%%%%%%%%%%%%%%%",
"%%%%%%%%%%%%%%%%%%%%%%%%%%%%%%%%%%%%%%%%",
"%%%%%%%%%%%%%%%:1,fvNMvf,2*%%%%%%%%%%%%%",
"%%%%%%%%%%%%%7gBVVVVCCCVVVBg9%%%%%%%%%%%",
"%%%%%%%%%%%8jVVVCCCCCCCCCCCVVx8%%%%%%%%%",
"%%%%%%%%%O,BVCCCCCCCCCCCCCCCCVV<O%%%%%%%",
"%%%%%%%%@kVVCCCCCCCCCCCCCCCCCCVVj:%%%%%%",
"%%%%%%%$cVCCCCCCCCCCCCCCCCCCCCCCVz*%%%%%",
"%%%%%%OjVCCCCCCCCCCCCCCCCCCCCCCCCVjO%%%%",
"%%%%%%<VCCCCCCCCCCCCCCCCCCCCCCCCCCVs%%%%",
"%%%%%3VCCCCCCCCCCCCCCCCCCCCCCCCCCCCV4%%%",
"%%%%&zVCCCCCCCCCCCCCCCCCCCCCCCCCCCCVvO%%",
"%%%%1VCCCCCCCCCCCCCCCCCCCCCCCCCCCVVmrO%%",
"%%%%xVCCCCCCCCCCCCCCCCCCCCCCCCCVVme$%%%%",
"%%%>VCCCCCCCCCCCCCCCCCCCCCCCCVVNr@%%%%%%",
"%%%pVCCCCCCCCCCCCCCCCCCCCCCVVnr+%%%%%%%%",
"%%%gVCCCCCCCCCCCCCCCCCCCCVVnr#%%%%%%%%%%",
"%%%vCCCCCCCCCCCCCCCCCCCVVltO%%%%%%%%%%%%",
"%%&BCCCCCCCCCCCCCCCCCVVbro%%%%%%%%%%%%%%",
"%%OVCCCCCCCCCCCCCCCCVbeO%%%%%%%%%%%%%%%%",
"%%#VCCCCCCCCCCCCCCCCVa@%%%%%%%%%%%%%%%%%",
"%%OVCCCCCCCCCCCCCCCCVVNu+%%%%%%%%%%%%%%%",
"%%%nCCCCCCCCCCCCCCCCCCVVMu#%%%%%%%%%%%%%",
"%%%jVCCCCCCCCCCCCCCCCCCCCVnp+%%%%%%%%%%%",
"%%%<VCCCCCCCCCCCCCCCCCCCCCCVny+%%%%%%%%%",
"%%%0VCCCCCCCCCCCCCCCCCCCCCCCVVNw@%%%%%%%",
"%%%onCCCCCCCCCCCCCCCCCCCCCCCCCCVNr@%%%%%",
"%%%%<VCCCCCCCCCCCCCCCCCCCCCCCCCCCVNe@%%%",
"%%%%=mVCCCCCCCCCCCCCCCCCCCCCCCCCCCVVn#%%",
"%%%%%iVCCCCCCCCCCCCCCCCCCCCCCCCCCCCVa%%%",
"%%%%%OvVCCCCCCCCCCCCCCCCCCCCCCCCCCVv+%%%",
"%%%%%% BVCCCCCCCCCCCCCCCCCCCCCCCCVB %%%%",
"%%%%%%%5VVCCCCCCCCCCCCCCCCCCCCCCVV0%%%%%",
"%%%%%%%%6BVCCCCCCCCCCCCCCCCCCCCVBq%%%%%%",
"%%%%%%%%%.bVCCCCCCCCCCCCCCCCCCVn.%%%%%%%",
"%%%%%%%%%%@sVVCCCCCCCCCCCCCCVVd$%%%%%%%%",
"%%%%%%%%%%%%XgVVVCCCCCCCCVVBg.%%%%%%%%%%",
"%%%%%%%%%%%%%%;yhBVVVVVVBhy-%%%%%%%%%%%%",
"%%%%%%%%%%%%%%%%%O>5qq5 O%%%%%%%%%%%%%%%",
"%%%%%%%%%%%%%%%%%%%%%%%%%%%%%%%%%%%%%%%%"
};
